<svg xmlns="http://www.w3.org/2000/svg" viewBox="0 0 34.1 36.37"><defs><style>.cls-1,.cls-2{fill:none;stroke:#2d2d2d;stroke-linejoin:round;stroke-width:2px;}.cls-1{stroke-linecap:round;}</style></defs><g id="圖層_2" data-name="圖層 2"><g id="圖層_2-2" data-name="圖層 2"><line class="cls-1" x1="1" y1="7.01" x2="33.1" y2="7.01"/><line class="cls-1" x1="5.42" y1="24.86" x2="3.99" y2="7.01"/><path class="cls-1" d="M29.28,7,27.36,31a4.77,4.77,0,0,1-4.76,4.39H10.67A4.77,4.77,0,0,1,5.91,31l0-.64"/><path class="cls-2" d="M22.55,7V3.82A2.83,2.83,0,0,0,19.72,1H14.15a2.83,2.83,0,0,0-2.83,2.82V7"/><line class="cls-1" x1="9.74" y1="11.76" x2="11.02" y2="24.86"/><line class="cls-1" x1="23.94" y1="11.76" x2="22.67" y2="24.86"/><line class="cls-1" x1="16.84" y1="11.76" x2="16.84" y2="24.86"/></g></g></svg>