<svg xmlns="http://www.w3.org/2000/svg" viewBox="0 0 28.8 36.41"><defs><style>.cls-1{fill:none;stroke:#2d2d2d;stroke-linecap:round;stroke-linejoin:round;stroke-width:2px;}.cls-2{fill:#2d2d2d;}</style></defs><g id="圖層_2" data-name="圖層 2"><g id="圖層_2-2" data-name="圖層 2"><path class="cls-1" d="M1,15.72H27.8V29.41a6,6,0,0,1-6,6H7a6,6,0,0,1-6-6Z"/><path class="cls-1" d="M23.9,15.72V9.87A8.83,8.83,0,0,0,14.65,1L14.4,1l-.25,0A8.83,8.83,0,0,0,4.9,9.87v5.85"/><path class="cls-1" d="M19.9,15.72V9.87a4.89,4.89,0,0,0-1.54-3.58A4.64,4.64,0,0,0,15.15,5h-.46l-.28,0-.29,0h-.47a4.6,4.6,0,0,0-3.2,1.29A4.86,4.86,0,0,0,8.9,9.87v5.85"/><circle class="cls-2" cx="14.4" cy="23.14" r="1.96"/><line class="cls-1" x1="14.48" y1="29.66" x2="14.48" y2="24.61"/></g></g></svg>