<svg xmlns="http://www.w3.org/2000/svg" viewBox="0 0 31.39 22.16"><defs><style>.cls-1{fill:#030303;}</style></defs><g id="圖層_2" data-name="圖層 2"><g id="圖層_2-2" data-name="圖層 2"><path d="M20.32,2.79l-.24.3a5.45,5.45,0,0,1-5,2.29c-4.28-.28-6.41,2.8-5.23,7,.35,1.24-.87,1.33-1.26,2.18A8.18,8.18,0,0,1,8.13,7.2,28.64,28.64,0,0,0,3,10.54a23.27,23.27,0,0,0,4.66,3.89c.53.33.51.53.11,1-1.15,1.27-1.13,1.29-2.54.23A31.07,31.07,0,0,1,.29,11.07c-.29-.33-.45-.56-.07-1C3.71,6.14,7.68,3,13,2A13.47,13.47,0,0,1,20.32,2.79Z"/><path d="M23.42,7.15c.24-.22.5-.42.73-.65,1.28-1.27,1.27-1.27,2.76-.17a33.57,33.57,0,0,1,4.18,3.72c.31.32.47.53.05.95-3.57,3.55-7.5,6.53-12.47,7.84a14.55,14.55,0,0,1-7.16.08c.88-.87,1.67-1.66,2.45-2.45.22-.22.48-.11.73-.11,4.21.05,6.65-2.37,6.57-6.55A1,1,0,0,1,21.6,9c.4-.37.76-.78,1.14-1.16.92.12.86.9.9,1.49a7.87,7.87,0,0,1-.87,5,28.28,28.28,0,0,0,4.67-3.11c.54-.41.42-.75-.09-1.1-1-.72-2.11-1.31-3.17-2C23.84,7.85,23.32,7.74,23.42,7.15Z"/><path d="M26.9,1.39c-.21.23-.34.39-.49.54q-9.94,9.95-19.89,19.9c-.85.85-1-.19-1.41-.44-.62-.37-.54-.74,0-1.25Q14,11.28,22.9,2.36c.62-.62,1.23-1.26,1.87-1.85.21-.2.37-.71.76-.43A13.87,13.87,0,0,1,26.9,1.39Z"/><path class="cls-1" d="M15.76,7l-3.92,3.92A3.35,3.35,0,0,1,15.76,7Z"/></g></g></svg>